{
  "accessors": [
    {
      "bufferView": 1,
      "componentType": 5126,
      "count": 65532,
      "max": [
        1.0272269248962402,
        0.7837814092636108,
        0.894742488861084
      ],
      "min": [
        -0.717756986618042,
        -0.9595221877098083,
        -0.25169631838798523
      ],
      "type": "VEC3"
    },
    {
      "bufferView": 1,
      "byteOffset": 786384,
      "componentType": 5126,
      "count": 65532,
      "max": [
        0.9999738931655884,
        0.9999716877937317,
        0.9999986290931702
      ],
      "min": [
        -0.9999915361404419,
        -0.9999947547912598,
        -0.9999979138374329
      ],
      "type": "VEC3"
    },
    {
      "bufferView": 0,
      "componentType": 5125,
      "count": 363306,
      "type": "SCALAR"
    },
    {
      "bufferView": 1,
      "byteOffset": 1572768,
      "componentType": 5126,
      "count": 28446,
      "max": [
        1.0272269248962402,
        0.7957907319068909,
        0.902448296546936
      ],
      "min": [
        -0.7333258986473083,
        -0.958679735660553,
        -0.2506241798400879
      ],
      "type": "VEC3"
    },
    {
      "bufferView": 1,
      "byteOffset": 1914120,
      "componentType": 5126,
      "count": 28446,
      "max": [
        0.999960720539093,
        0.9999716877937317,
        0.9999546408653259
      ],
      "min": [
        -0.9999633431434631,
        -0.9999947547912598,
        -0.9999827742576599
      ],
      "type": "VEC3"
    },
    {
      "bufferView": 0,
      "byteOffset": 1453224,
      "componentType": 5125,
      "count": 140268,
      "type": "SCALAR"
    }
  ],
  "asset": {
    "extras": {
      "author": "yipskiddlydoo (https://sketchfab.com/yipskiddlydoo)",
      "license": "CC-BY-4.0 (http://creativecommons.org/licenses/by/4.0/)",
      "source": "https://sketchfab.com/3d-models/poo-1e5b84a5893148868d3c12a59c7a66f3",
      "title": "Poo"
    },
    "generator": "Sketchfab-12.67.0",
    "version": "2.0"
  },
  "bufferViews": [
    {
      "buffer": 0,
      "byteLength": 2014296,
      "name": "floatBufferViews",
      "target": 34963
    },
    {
      "buffer": 0,
      "byteLength": 2255472,
      "byteOffset": 2014296,
      "byteStride": 12,
      "name": "floatBufferViews",
      "target": 34962
    }
  ],
  "buffers": [
    {
      "byteLength": 4269768,
      "uri": "scene.bin"
    }
  ],
  "materials": [
    {
      "doubleSided": true,
      "name": "material_0",
      "pbrMetallicRoughness": {
        "baseColorFactor": [
          0.053573780633981286,
          0.021589409926505532,
          0.0015820532845244638,
          1.0
        ],
        "metallicFactor": 0.0,
        "roughnessFactor": 0.6
      }
    }
  ],
  "meshes": [
    {
      "name": "Object_0",
      "primitives": [
        {
          "attributes": {
            "NORMAL": 1,
            "POSITION": 0
          },
          "indices": 2,
          "material": 0,
          "mode": 4
        }
      ]
    },
    {
      "name": "Object_1",
      "primitives": [
        {
          "attributes": {
            "NORMAL": 4,
            "POSITION": 3
          },
          "indices": 5,
          "material": 0,
          "mode": 4
        }
      ]
    }
  ],
  "nodes": [
    {
      "children": [
        1
      ],
      "matrix": [
        1.0,
        0.0,
        0.0,
        0.0,
        0.0,
        2.220446049250313e-16,
        -1.0,
        0.0,
        0.0,
        1.0,
        2.220446049250313e-16,
        0.0,
        0.0,
        0.0,
        0.0,
        1.0
      ],
      "name": "Sketchfab_model"
    },
    {
      "children": [
        2,
        3
      ],
      "name": "poo.OBJ.cleaner.gles"
    },
    {
      "mesh": 0,
      "name": "Object_2"
    },
    {
      "mesh": 1,
      "name": "Object_3"
    }
  ],
  "scene": 0,
  "scenes": [
    {
      "name": "Sketchfab_Scene",
      "nodes": [
        0
      ]
    }
  ]
}
